<svg viewBox="0 0 556 245" fill="none" xmlns="http://www.w3.org/2000/svg">
  <path
    d="M332.957 141.656V131.816V125.256C332.957 124.787 332.957 124.787 332.957 124.319C332.957 123.382 332.957 104.17 319.368 90.1124C310.934 81.2094 298.75 76.9922 284.224 76.9922C271.573 76.9922 261.264 80.2723 253.298 86.3638C249.549 89.1753 249.081 94.3297 251.892 98.0783C254.704 101.827 259.858 102.296 263.607 99.4841C268.761 95.7354 275.79 93.3925 284.224 93.3925C315.619 93.3925 317.025 121.039 317.025 124.319H316.088H252.361H242.521C241.584 124.319 240.646 124.319 239.709 124.787C237.835 125.725 236.429 127.13 235.961 128.536C235.492 129.473 235.023 130.879 235.023 131.816V141.656V162.742V163.68V173.52C235.023 174.926 235.492 176.331 236.429 177.737C237.835 179.611 240.178 181.017 242.521 181.017H325.928C330.145 181.017 333.425 177.737 333.425 173.52V163.68V157.12V141.656H332.957ZM252.361 163.68V157.12V141.188H315.619V162.274V163.211H252.361V163.68Z"
    fill="#54CA70" />
  <path
    d="M284.687 0.625C256.104 1.09358 228.926 11.8709 206.434 33.8942C204.091 35.7686 203.154 38.5801 203.154 41.3915C203.623 45.1402 205.497 47.9517 208.777 48.8888C212.526 50.2946 215.806 49.3574 218.149 46.5459C227.052 37.6429 237.361 30.6142 249.075 25.9284C286.093 10.4652 326.86 18.4311 355.912 46.5459C359.192 49.826 363.409 50.2946 367.158 48.4202C372.312 45.6088 372.781 38.5801 368.563 34.3628C360.597 26.3969 351.226 19.3682 341.386 14.2138C324.517 4.84223 306.711 0.625 284.687 0.625Z"
    fill="#54CA70" />
  <path
    d="M288.433 37.1562C262.661 37.6248 242.981 45.5907 226.112 61.991C223.3 64.8025 222.363 67.614 223.769 71.3626C225.175 75.1113 227.518 76.9856 231.266 77.4542C234.078 77.9228 236.421 76.9856 238.295 74.6427C245.324 67.614 253.29 62.4596 262.193 59.1796C288.433 50.2765 311.862 55.4309 332.011 74.1741C336.228 77.9228 341.383 78.3914 345.131 74.6427C348.88 70.8941 348.88 65.7397 345.131 61.991C332.948 50.2765 318.891 42.3106 302.49 39.0306C297.336 37.6248 291.713 37.6248 288.433 37.1562Z"
    fill="#54CA70" />
  <path
    d="M90.2314 130.425H18.0699V114.494H78.5168H78.9854C81.3283 114.494 95.8543 114.025 98.6658 102.311V97.1562H9.63546C7.29255 97.1562 5.41823 98.0934 3.54391 99.4992C1.66959 101.373 0.732422 103.248 0.732422 105.591V138.86C0.732422 141.203 1.66959 143.546 3.54391 144.951C5.41823 146.826 7.29255 147.294 9.63546 147.294H81.3283V163.226H0.732422V180.564H89.7628C92.1057 180.564 94.4486 179.626 95.8543 178.221C97.7286 176.346 98.1972 174.472 98.1972 172.129V138.86C98.1972 136.517 97.2601 134.174 95.8543 132.768C94.4486 131.363 92.5743 130.425 90.2314 130.425Z"
    fill="white" />
  <path
    d="M213.469 99.9757C211.594 98.1014 209.72 97.6328 207.377 97.6328H199.88L165.673 129.496L131.467 97.6328H123.97C121.627 97.6328 119.752 98.57 117.878 99.9757C116.004 101.85 115.535 103.724 115.535 106.067V181.509H132.873V121.999L166.142 152.457L199.411 121.999V181.04H216.28V106.067C216.28 103.256 215.343 101.381 213.469 99.9757Z"
    fill="white" />
  <path
    d="M447.758 99.9677C445.884 98.0934 444.01 97.1562 441.667 97.1562H370.443H369.974H352.168V106.059V130.894V148.232V172.598C352.168 174.941 353.105 177.284 354.979 178.689C356.854 180.564 358.728 181.032 361.071 181.032H369.974V162.758V161.352V148.232H403.243L411.209 155.729L415.895 159.946L428.547 171.661L439.324 181.501L445.884 174.004C448.696 171.192 448.227 166.506 445.416 163.695L437.918 157.135L428.547 148.7H441.667C444.01 148.7 446.353 147.763 447.758 146.357C449.633 144.483 450.101 142.609 450.101 140.266V106.996C450.101 103.716 449.164 101.842 447.758 99.9677ZM432.764 130.894H369.505V114.962H432.764V130.894Z"
    fill="white" />
  <path
    d="M555.066 114.494C555.066 98.0934 537.729 97.1562 534.449 97.1562H514.768H511.02H499.774H497.431H457.133C457.133 113.557 474.47 114.494 477.75 114.494H497.431V172.598C497.431 174.941 498.368 177.284 500.242 178.689C502.117 180.564 503.991 181.032 506.334 181.032H514.768V114.494H555.066Z"
    fill="white" />
  <path
    d="M81.7991 213.352H77.5819H51.81H47.5927C47.1241 213.352 46.6556 213.352 46.6556 213.352C45.7184 213.82 45.2498 214.289 45.2498 214.757C45.2498 215.226 44.7813 215.226 44.7813 215.694V219.443V237.249V240.998C44.7813 241.466 44.7812 241.935 45.2498 242.404C45.7184 243.341 46.6556 243.809 47.5927 243.809H81.3305C83.2049 243.809 84.142 242.404 84.142 240.998V237.249V219.443V216.163V213.352H81.7991ZM77.5819 237.249H51.81V219.443H77.5819V237.249Z"
    fill="white" />
  <path
    d="M240.175 240.521C240.175 241.458 239.707 241.927 239.238 242.864C238.769 243.333 237.832 243.801 236.895 243.801H233.615L207.374 222.247V243.801H200.346V216.155C200.346 215.218 200.814 214.749 201.283 213.812C201.751 213.344 202.689 212.875 203.626 212.875H206.437L232.678 234.43V212.875H239.706V240.521H240.175Z"
    fill="white" />
  <path
    d="M33.5375 237.249H9.17129V213.352H2.14258V240.529C2.14258 241.466 2.61116 241.935 3.07974 242.872C3.54832 243.341 4.48549 243.809 5.42265 243.809H41.9719C41.5034 237.718 34.4747 237.249 33.5375 237.249Z"
    fill="white" />
  <path
    d="M184.412 213.352V240.529C184.412 241.466 184.881 241.935 185.349 242.872C185.818 243.341 186.755 243.809 187.692 243.809H191.441V213.352H184.412Z"
    fill="white" />
  <path
    d="M280.01 219.443C280.947 219.443 286.57 219.443 287.976 215.226V213.352H251.427C250.489 213.352 249.552 213.82 249.084 214.289C248.146 214.757 248.146 215.694 248.146 216.632V240.529C248.146 241.466 248.615 241.935 249.084 242.872C250.021 243.341 250.489 243.809 251.427 243.809H254.707H283.759C284.696 243.809 285.633 243.341 286.102 242.872C286.57 242.404 287.039 241.466 287.039 240.529V228.346C287.039 227.409 286.57 226.94 286.102 226.003C286.102 225.535 285.164 225.535 284.227 225.535H280.947H268.764V228.815C268.764 229.752 269.233 230.22 269.701 231.158C270.638 231.626 271.107 232.095 272.044 232.095H280.479V236.781V237.718H254.707V225.535V219.912H280.01V219.443C279.541 219.443 279.541 219.443 280.01 219.443Z"
    fill="white" />
  <path
    d="M99.6028 237.249V219.443H104.757H131.935C131.935 214.289 126.312 213.352 123.969 213.352H100.071H99.1342H94.9169C94.4484 213.352 93.9798 213.352 93.9798 213.352C93.0426 213.82 92.574 214.289 92.574 214.757C92.574 215.226 92.1055 215.226 92.1055 215.694V219.443V240.529V243.809H95.8541H99.6028H124.438C126.312 243.809 132.403 242.872 132.403 237.718L99.6028 237.249Z"
    fill="white" />
  <path
    d="M165.207 228.338C168.956 225.058 173.173 221.778 175.984 219.435C176.922 218.498 177.39 216.624 175.984 215.686L173.173 212.875L169.424 217.092L164.27 221.309L162.396 222.715L158.647 225.527H145.058V219.904V213.344H138.029V216.624V225.527V231.618V240.521C138.029 241.458 138.498 241.927 138.966 242.864C139.435 243.333 140.372 243.801 141.309 243.801H145.058V237.241V236.773V232.087H148.807H158.178L161.458 234.898L163.333 236.304L168.487 240.521L172.704 244.27L175.516 241.458C176.453 240.521 176.453 238.647 175.516 237.71C173.641 234.898 169.424 231.618 165.207 228.338Z"
    fill="white" />
  <path
    d="M306.713 239.123C306.713 241.466 304.37 243.809 301.559 243.809C298.747 243.809 296.404 241.466 296.404 239.123C296.404 236.312 298.747 234.438 301.559 234.438C303.902 234.438 306.713 236.312 306.713 239.123Z"
    fill="#54CA70" />
  <path
    d="M447.29 213.352H443.072H417.769H413.552C413.083 213.352 412.615 213.352 412.615 213.352C411.677 213.82 411.209 214.289 411.209 214.757C411.209 215.226 410.74 215.226 410.74 215.694V219.443V237.249V240.998C410.74 241.466 410.74 241.935 411.209 242.404C411.677 243.341 412.615 243.809 413.552 243.809H447.29C449.164 243.809 450.101 242.404 450.101 240.998V237.249V219.443V216.163V213.352H447.29ZM443.541 237.249H417.769V219.443H443.541V237.249Z"
    fill="white" />
  <path
    d="M400.896 214.289C400.428 213.82 399.491 213.352 398.553 213.352H369.501H362.473V216.632V225.535V231.626V240.529C362.473 241.466 362.941 241.935 363.41 242.872C363.878 243.341 364.816 243.809 365.753 243.809H369.501V237.249V236.781V232.095H383.09L386.37 234.906L388.245 236.312L393.399 240.529L397.616 244.278L400.428 241.466C401.365 240.529 401.365 238.655 400.428 237.718L397.616 235.375L393.868 232.095H399.022C399.959 232.095 400.896 231.626 401.365 231.158C401.833 230.689 402.302 229.752 402.302 228.815V216.632C401.833 215.694 401.365 214.757 400.896 214.289ZM394.805 225.535H369.033V219.912H394.805V225.535Z"
    fill="white" />
  <path
    d="M346.545 219.443C347.482 219.443 353.105 219.443 354.511 215.226V213.352H317.962C317.025 213.352 316.087 213.82 315.619 214.289C314.682 214.757 314.682 215.694 314.682 216.163V240.061C314.682 240.998 315.15 241.466 315.619 242.404C316.556 242.872 317.025 243.341 317.962 243.341H321.242H350.294C351.231 243.341 352.168 242.872 352.637 242.404C353.105 241.935 353.574 240.998 353.574 240.061V227.878C353.574 226.94 353.105 226.472 352.637 225.535C352.168 225.066 351.231 224.598 350.294 224.598H347.482H335.299V227.878C335.299 228.815 335.768 229.283 336.236 230.22C337.174 230.689 337.642 231.158 338.579 231.158H347.014V235.843V236.781H321.242V225.535V219.912H346.545V219.443C346.077 219.443 346.077 219.443 346.545 219.443Z"
    fill="white" />
  <path
    d="M496.026 213.352H491.808V219.443V237.249H466.037V219.443V213.352H461.819C461.351 213.352 460.882 213.352 460.882 213.352C459.945 213.82 459.476 214.289 459.476 214.757C459.476 215.226 459.008 215.226 459.008 215.694V219.443V237.249V240.998C459.008 241.466 459.008 241.935 459.476 242.404C459.945 243.341 460.882 243.809 461.819 243.809H495.557C497.431 243.809 498.369 242.404 498.369 240.998V237.249V219.443V216.163V213.352H496.026Z"
    fill="white" />
  <path
    d="M515.238 236.773V236.304V231.618H528.827H539.135H544.29C545.227 231.618 546.164 231.15 546.633 230.681C547.101 230.212 547.57 229.275 547.57 228.338V216.155C547.57 215.218 547.101 214.749 546.633 213.812C546.164 213.344 545.227 212.875 544.29 212.875H515.238H508.209V216.155V225.527V231.618V240.521C508.209 241.458 508.678 241.927 509.146 242.864C509.615 243.333 510.552 243.801 511.489 243.801H515.238V236.773ZM515.238 219.435H541.01V225.527H515.238V219.435Z"
    fill="white" />
</svg>