<svg width="566" height="250" viewBox="0 0 566 250" fill="none" xmlns="http://www.w3.org/2000/svg">
  <path
    d="M338.938 144.56V134.529V127.841C338.938 127.364 338.938 127.364 338.938 126.886C338.938 125.931 338.938 106.346 325.085 92.0156C316.487 82.9397 304.068 78.6406 289.26 78.6406C276.362 78.6406 265.853 81.9844 257.733 88.1942C253.912 91.0602 253.434 96.3147 256.3 100.136C259.166 103.958 264.42 104.435 268.242 101.569C273.496 97.7477 280.661 95.3593 289.26 95.3593C321.264 95.3593 322.697 123.542 322.697 126.886H321.742H256.778H246.746C245.791 126.886 244.836 126.886 243.88 127.364C241.97 128.319 240.537 129.752 240.059 131.185C239.581 132.141 239.104 133.574 239.104 134.529V144.56V166.056V167.011V177.042C239.104 178.475 239.581 179.908 240.537 181.341C241.97 183.252 244.358 184.685 246.746 184.685H331.773C336.072 184.685 339.416 181.341 339.416 177.042V167.011V160.323V144.56H338.938ZM256.778 167.011V160.323V144.082H321.264V165.578V166.533H256.778V167.011Z"
    fill="#54CA70" />
  <path
    d="M289.73 0.804688C260.592 1.28236 232.887 12.2689 209.958 34.7198C207.57 36.6305 206.614 39.4966 206.614 42.3626C207.092 46.1841 209.003 49.0501 212.346 50.0055C216.168 51.4385 219.512 50.4831 221.9 47.6171C230.976 38.5412 241.485 31.3761 253.427 26.5993C291.163 10.8359 332.721 18.9564 362.337 47.6171C365.681 50.9608 369.98 51.4385 373.801 49.5278C379.056 46.6617 379.534 39.4966 375.234 35.1975C367.114 27.077 357.56 19.9118 347.529 14.6573C330.333 5.10378 312.181 0.804688 289.73 0.804688Z"
    fill="#54CA70" />
  <path
    d="M293.55 38.0469C267.277 38.5246 247.215 46.6451 230.018 63.3638C227.152 66.2298 226.197 69.0959 227.63 72.9173C229.063 76.7387 231.451 78.6495 235.273 79.1272C238.139 79.6048 240.527 78.6495 242.438 76.2611C249.603 69.0959 257.724 63.8415 266.8 60.4977C293.55 51.4218 317.433 56.6763 337.974 75.7834C342.273 79.6048 347.527 80.0825 351.349 76.2611C355.17 72.4397 355.17 67.1852 351.349 63.3638C338.929 51.4218 324.599 43.3013 307.88 39.9576C302.625 38.5246 296.893 38.5246 293.55 38.0469Z"
    fill="#54CA70" />
  <path
    d="M91.501 133.11H17.9387V116.869H79.5591H80.0368C82.4252 116.869 97.2332 116.392 100.099 104.45V99.1953H9.34052C6.95213 99.1953 5.04143 100.151 3.13072 101.584C1.22001 103.494 0.264648 105.405 0.264648 107.794V141.709C0.264648 144.097 1.22001 146.485 3.13072 147.918C5.04143 149.829 6.95213 150.307 9.34052 150.307H82.4252V166.548H0.264648V184.222H91.0234C93.4118 184.222 95.8001 183.267 97.2332 181.834C99.1439 179.923 99.6216 178.012 99.6216 175.624V141.709C99.6216 139.32 98.6662 136.932 97.2332 135.499C95.8001 134.066 93.8894 133.11 91.501 133.11Z"
    fill="#545455" />
  <path
    d="M217.13 102.068C215.219 100.157 213.309 99.6797 210.92 99.6797H203.277L168.407 132.162L133.536 99.6797H125.894C123.505 99.6797 121.595 100.635 119.684 102.068C117.773 103.979 117.295 105.889 117.295 108.278V185.184H134.969V124.519L168.885 155.568L202.8 124.519V184.706H219.996V108.278C219.996 105.412 219.041 103.501 217.13 102.068Z"
    fill="#545455" />
  <path
    d="M455.969 102.061C454.058 100.151 452.147 99.1953 449.759 99.1953H377.152H376.674H358.522V108.271V133.588V151.262V176.101C358.522 178.49 359.478 180.878 361.389 182.311C363.299 184.222 365.21 184.7 367.598 184.7H376.674V166.07V164.637V151.262H410.589L418.71 158.905L423.487 163.204L436.384 175.146L447.37 185.177L454.058 177.534C456.924 174.668 456.446 169.892 453.58 167.026L445.937 160.338L436.384 151.74H449.759C452.147 151.74 454.536 150.784 455.969 149.351C457.879 147.441 458.357 145.53 458.357 143.142V109.227C458.357 105.883 457.402 103.972 455.969 102.061ZM440.683 133.588H376.197V117.347H440.683V133.588Z"
    fill="#545455" />
  <path
    d="M565.359 116.869C565.359 100.151 547.685 99.1953 544.341 99.1953H524.279H520.457H508.993H506.605H465.524C465.524 115.914 483.198 116.869 486.542 116.869H506.605V176.101C506.605 178.49 507.56 180.878 509.471 182.311C511.381 184.222 513.292 184.7 515.681 184.7H524.279V116.869H565.359Z"
    fill="#545455" />
  <path
    d="M82.905 217.648H78.6059H52.3336H48.0345C47.5568 217.648 47.0792 217.648 47.0792 217.648C46.1238 218.126 45.6461 218.604 45.6461 219.081C45.6461 219.559 45.1685 219.559 45.1685 220.037V223.858V242.01V245.831C45.1685 246.309 45.1684 246.787 45.6461 247.264C46.1238 248.22 47.0792 248.697 48.0345 248.697H82.4273C84.338 248.697 85.2934 247.264 85.2934 245.831V242.01V223.858V220.514V217.648H82.905ZM78.6059 242.01H52.3336V223.858H78.6059V242.01Z"
    fill="#545455" />
  <path
    d="M244.356 245.339C244.356 246.295 243.878 246.772 243.401 247.728C242.923 248.205 241.968 248.683 241.012 248.683H237.669L210.919 226.71V248.683H203.753V220.5C203.753 219.545 204.231 219.067 204.709 218.112C205.186 217.634 206.142 217.156 207.097 217.156H209.963L236.713 239.129V217.156H243.878V245.339H244.356Z"
    fill="#545455" />
  <path
    d="M33.7056 242.01H8.86633V217.648H1.70117V245.354C1.70117 246.309 2.17885 246.787 2.65653 247.742C3.13421 248.22 4.08956 248.697 5.04492 248.697H42.3038C41.8261 242.488 34.6609 242.01 33.7056 242.01Z"
    fill="#545455" />
  <path
    d="M187.511 217.648V245.354C187.511 246.309 187.988 246.787 188.466 247.742C188.944 248.22 189.899 248.697 190.855 248.697H194.676V217.648H187.511Z"
    fill="#545455" />
  <path
    d="M284.964 223.858C285.92 223.858 291.652 223.858 293.085 219.559V217.648H255.826C254.871 217.648 253.915 218.126 253.438 218.604C252.482 219.081 252.482 220.037 252.482 220.992V245.354C252.482 246.309 252.96 246.787 253.438 247.742C254.393 248.22 254.871 248.697 255.826 248.697H259.17H288.786C289.741 248.697 290.697 248.22 291.174 247.742C291.652 247.264 292.13 246.309 292.13 245.354V232.934C292.13 231.979 291.652 231.501 291.174 230.546C291.174 230.068 290.219 230.068 289.264 230.068H285.92H273.5V233.412C273.5 234.367 273.978 234.845 274.456 235.8C275.411 236.278 275.889 236.756 276.844 236.756H285.442V241.532V242.488H259.17V230.068V224.336H284.964V223.858C284.487 223.858 284.487 223.858 284.964 223.858Z"
    fill="#545455" />
  <path
    d="M101.054 242.01V223.858H106.309H134.014C134.014 218.604 128.282 217.648 125.894 217.648H101.532H100.577H96.2777C95.8 217.648 95.3223 217.648 95.3223 217.648C94.367 218.126 93.8893 218.604 93.8893 219.081C93.8893 219.559 93.4116 219.559 93.4116 220.037V223.858V245.354V248.697H97.233H101.054H126.371C128.282 248.697 134.492 247.742 134.492 242.488L101.054 242.01Z"
    fill="#545455" />
  <path
    d="M167.933 232.92C171.754 229.576 176.053 226.232 178.919 223.844C179.875 222.888 180.352 220.978 178.919 220.022L176.053 217.156L172.232 221.455L166.977 225.754L165.067 227.187L161.245 230.054H147.393V224.321V217.634H140.228V220.978V230.054V236.263V245.339C140.228 246.295 140.705 246.772 141.183 247.728C141.661 248.205 142.616 248.683 143.571 248.683H147.393V241.995V241.518V236.741H151.214H160.768L164.111 239.607L166.022 241.04L171.277 245.339L175.576 249.161L178.442 246.295C179.397 245.339 179.397 243.428 178.442 242.473C176.531 239.607 172.232 236.263 167.933 232.92Z"
    fill="#545455" />
  <path
    d="M312.187 243.917C312.187 246.306 309.798 248.694 306.932 248.694C304.066 248.694 301.678 246.306 301.678 243.917C301.678 241.051 304.066 239.141 306.932 239.141C309.321 239.141 312.187 241.051 312.187 243.917Z"
    fill="#54CA70" />
  <path
    d="M455.491 217.648H451.192H425.398H421.098C420.621 217.648 420.143 217.648 420.143 217.648C419.188 218.126 418.71 218.604 418.71 219.081C418.71 219.559 418.232 219.559 418.232 220.037V223.858V242.01V245.831C418.232 246.309 418.232 246.787 418.71 247.264C419.188 248.22 420.143 248.697 421.098 248.697H455.491C457.402 248.697 458.357 247.264 458.357 245.831V242.01V223.858V220.514V217.648H455.491ZM451.67 242.01H425.398V223.858H451.67V242.01Z"
    fill="#545455" />
  <path
    d="M408.197 218.604C407.72 218.126 406.764 217.648 405.809 217.648H376.193H369.028V220.992V230.068V236.278V245.354C369.028 246.309 369.506 246.787 369.983 247.742C370.461 248.22 371.416 248.697 372.372 248.697H376.193V242.01V241.532V236.756H390.046L393.389 239.622L395.3 241.055L400.555 245.354L404.854 249.175L407.72 246.309C408.675 245.354 408.675 243.443 407.72 242.488L404.854 240.099L401.032 236.756H406.287C407.242 236.756 408.197 236.278 408.675 235.8C409.153 235.322 409.63 234.367 409.63 233.412V220.992C409.153 220.037 408.675 219.081 408.197 218.604ZM401.988 230.068H375.715V224.336H401.988V230.068Z"
    fill="#545455" />
  <path
    d="M352.791 223.858C353.746 223.858 359.478 223.858 360.911 219.559V217.648H323.652C322.697 217.648 321.742 218.126 321.264 218.604C320.309 219.081 320.309 220.037 320.309 220.514V244.876C320.309 245.831 320.786 246.309 321.264 247.264C322.219 247.742 322.697 248.22 323.652 248.22H326.996H356.612C357.567 248.22 358.523 247.742 359 247.264C359.478 246.787 359.956 245.831 359.956 244.876V232.456C359.956 231.501 359.478 231.023 359 230.068C358.523 229.59 357.567 229.113 356.612 229.113H353.746H341.326V232.456C341.326 233.412 341.804 233.889 342.282 234.845C343.237 235.322 343.715 235.8 344.67 235.8H353.268V240.577V241.532H326.996V230.068V224.336H352.791V223.858C352.313 223.858 352.313 223.858 352.791 223.858Z"
    fill="#545455" />
  <path
    d="M505.174 217.648H500.874V223.858V242.01H474.602V223.858V217.648H470.303C469.825 217.648 469.348 217.648 469.348 217.648C468.392 218.126 467.915 218.604 467.915 219.081C467.915 219.559 467.437 219.559 467.437 220.037V223.858V242.01V245.831C467.437 246.309 467.437 246.787 467.915 247.264C468.392 248.22 469.348 248.697 470.303 248.697H504.696C506.607 248.697 507.562 247.264 507.562 245.831V242.01V223.858V220.514V217.648H505.174Z"
    fill="#545455" />
  <path
    d="M524.758 241.518V241.04V236.263H538.611H549.119H554.374C555.329 236.263 556.285 235.786 556.762 235.308C557.24 234.83 557.718 233.875 557.718 232.92V220.5C557.718 219.545 557.24 219.067 556.762 218.112C556.285 217.634 555.329 217.156 554.374 217.156H524.758H517.593V220.5V230.054V236.263V245.339C517.593 246.295 518.07 246.772 518.548 247.728C519.026 248.205 519.981 248.683 520.937 248.683H524.758V241.518ZM524.758 223.844H551.03V230.054H524.758V223.844Z"
    fill="#545455" />
</svg>