<?xml version="1.0" encoding="UTF-8" standalone="no"?>
<svg
   width="431.17142"
   height="512"
   viewBox="0 0 431.17142 512"
   fill="none"
   version="1.1"
   id="svg20"
   sodipodi:docname="slg-logo-green.svg"
   inkscape:version="1.3.2 (1:1.3.2+202311252150+091e20ef0f)"
   xmlns:inkscape="http://www.inkscape.org/namespaces/inkscape"
   xmlns:sodipodi="http://sodipodi.sourceforge.net/DTD/sodipodi-0.dtd"
   xmlns="http://www.w3.org/2000/svg"
   xmlns:svg="http://www.w3.org/2000/svg">
  <sodipodi:namedview
     id="namedview1"
     pagecolor="#505050"
     bordercolor="#eeeeee"
     borderopacity="1"
     inkscape:showpageshadow="0"
     inkscape:pageopacity="0"
     inkscape:pagecheckerboard="true"
     inkscape:deskcolor="#d1d1d1"
     inkscape:zoom="1.65625"
     inkscape:cx="215.84906"
     inkscape:cy="256"
     inkscape:window-width="1920"
     inkscape:window-height="1054"
     inkscape:window-x="0"
     inkscape:window-y="0"
     inkscape:window-maximized="1"
     inkscape:current-layer="svg20" />
  <defs
     id="defs20" />
  <g
     id="layer2"
     transform="matrix(2.5625897,0,0,2.8382633,-520.60035,-1.7739146)"
     inkscape:label="Logo"
     inkscape:export-filename="slg-logo-green.png"
     inkscape:export-xdpi="96"
     inkscape:export-ydpi="96">
    <path
       d="m 333.4242,131.79507 -0.003,-6.53553 0.007,-0.94054 c 0.007,-0.93697 -0.47138,-20.149 -14.06037,-34.2066 -8.43401,-8.903 -20.61804,-13.1202 -35.14405,-13.1202 -12.65096,0 -22.96003,3.2801 -30.92598,9.3716 -3.74901,2.8115 -4.21706,7.9659 -1.40599,11.7145 2.81198,3.7487 7.96596,4.2177 11.71495,1.4058 5.15397,-3.7487 12.18301,-6.0916 20.61702,-6.0916 31.39505,0 32.80103,27.6465 32.80103,30.9265 h -0.93702 -63.72701 -9.84 c -0.93702,0 -1.87495,0 -2.81198,0.468 -1.87405,0.938 -3.28003,2.343 -3.74799,3.749 -0.46906,0.937 -0.93803,2.343 -0.93803,3.28 v 9.84 21.086 0.938 9.84 c 0,1.406 0.46897,2.811 1.40599,4.217 1.40598,1.874 3.749,3.28 6.09201,3.28 h 83.40701 c 4.21696,0 7.49699,-3.28 7.49699,-7.497 v -9.84 -6.56 -15.464 c 0,-2.27883 -8e-4,-6.63163 -8e-4,-9.86093 z M 252.361,163.68 v -6.56 -15.932 h 63.25805 v 21.086 0.937 H 252.361 Z"
       fill="#54ca70"
       id="path1"
       style="stroke-width:0.999999"
       sodipodi:nodetypes="ccscscccscccsccscccscssscccccccccccc" />
    <path
       d="m 284.687,0.625 c -28.583,0.46858 -55.761,11.2459 -78.253,33.2692 -2.343,1.8744 -3.28,4.6859 -3.28,7.4973 0.469,3.7487 2.343,6.5602 5.623,7.4973 3.749,1.4058 7.029,0.4686 9.372,-2.3429 8.903,-8.903 19.212,-15.9317 30.926,-20.6175 37.018,-15.4632 77.785,-7.4973 106.837,20.6175 3.28,3.2801 7.497,3.7487 11.246,1.8743 5.154,-2.8114 5.623,-9.8401 1.405,-14.0574 C 360.597,26.3969 351.226,19.3682 341.386,14.2138 324.517,4.84223 306.711,0.625 284.687,0.625 Z"
       fill="#54ca70"
       id="path2" />
    <path
       d="m 288.433,37.1562 c -25.772,0.4686 -45.452,8.4345 -62.321,24.8348 -2.812,2.8115 -3.749,5.623 -2.343,9.3716 1.406,3.7487 3.749,5.623 7.497,6.0916 2.812,0.4686 5.155,-0.4686 7.029,-2.8115 7.029,-7.0287 14.995,-12.1831 23.898,-15.4631 26.24,-8.9031 49.669,-3.7487 69.818,14.9945 4.217,3.7487 9.372,4.2173 13.12,0.4686 3.749,-3.7486 3.749,-8.903 0,-12.6517 -12.183,-11.7145 -26.24,-19.6804 -42.641,-22.9604 -5.154,-1.4058 -10.777,-1.4058 -14.057,-1.8744 z"
       fill="#54ca70"
       id="path3" />
  </g>
</svg>
