<svg viewBox="0 0 1158 1201" fill="none" xmlns="http://www.w3.org/2000/svg">
  <path opacity="0.1"
    d="M468.071 986.541C440.151 1034.9 378.315 1051.47 329.957 1023.55L88.1238 883.926C39.7654 856.006 23.1965 794.171 51.1162 745.812L262.282 380.062C290.202 331.704 352.037 315.135 400.396 343.055L642.229 482.677C690.587 510.597 707.156 572.433 679.237 620.791L468.071 986.541Z"
    fill="white" />
  <path opacity="0.1"
    d="M745.478 113.102C784.962 73.6178 848.979 73.6178 888.464 113.102L1085.92 310.558C1125.4 350.043 1125.4 414.06 1085.92 453.544L787.286 752.178C747.802 791.662 683.785 791.662 644.3 752.178L446.844 554.722C407.36 515.237 407.36 451.22 446.844 411.736L745.478 113.102Z"
    fill="white" />
  <path
    d="M561.308 364.397C589.331 316.099 651.202 299.663 699.501 327.686L1016.35 511.528C1064.65 539.552 1081.09 601.423 1053.06 649.721L784.423 1112.72C756.399 1161.02 694.528 1177.45 646.23 1149.43L329.38 965.587C281.081 937.564 264.645 875.693 292.669 827.394L561.308 364.397Z"
    fill="#54CA70" />
  <path
    d="M139.239 411.938C99.7546 372.454 99.7545 308.437 139.239 268.952L336.695 71.4964C376.179 32.0119 440.196 32.0119 479.681 71.4963L778.314 370.13C817.799 409.614 817.799 473.631 778.315 513.116L580.858 710.572C541.374 750.056 477.357 750.056 437.873 710.572L139.239 411.938Z"
    fill="#54CA70" />
</svg>