<svg viewBox="0 0 194 194" fill="none" xmlns="http://www.w3.org/2000/svg">
  <rect width="61" height="61" fill="white" />
  <rect x="66" width="61" height="61" fill="white" />
  <rect x="131" width="63" height="61" fill="white" />
  <rect y="66" width="61" height="62" fill="white" />
  <rect x="66" y="66" width="61" height="62" fill="white" />
  <rect x="131" y="66" width="63" height="62" fill="white" />
  <rect y="133" width="61" height="61" fill="white" />
  <rect x="66" y="133" width="61" height="61" fill="white" />
  <rect x="131" y="133" width="63" height="61" fill="white" />
  <path d="M25.0224 25.128L31.1064 20.124H33.9144V45H31.0704V23.472L25.0224 28.404V25.128Z" fill="currentColor" />
  <path
    d="M100.67 33.588L92.0304 42.444H104.81V45H88.3584V42.3L98.5464 31.968C100.562 29.88 101.39 28.368 101.39 26.568C101.39 23.868 99.5544 22.284 96.5304 22.284C93.1104 22.284 91.2024 24.12 91.2024 27.576V28.836L88.3584 28.512V27.36C88.3584 22.536 91.3824 19.692 96.4224 19.692C101.102 19.692 104.234 22.284 104.234 26.496C104.234 28.764 103.406 30.78 100.67 33.588Z"
    fill="currentColor" />
  <path
    d="M162.674 45.432C157.202 45.432 153.998 42.336 153.998 37.008H156.914C156.914 40.572 158.858 42.84 162.638 42.84C165.878 42.84 168.002 40.716 168.002 37.764C168.002 34.272 165.338 32.724 162.134 32.724H161.306V30.456H162.098C164.978 30.456 166.814 28.692 166.814 26.172C166.814 23.832 165.05 22.248 162.458 22.248C159.578 22.248 157.706 24.264 157.706 27.288V27.468L154.826 27.144C154.826 22.572 157.886 19.692 162.386 19.692C166.562 19.692 169.514 22.392 169.514 25.92C169.514 28.728 167.786 30.672 165.698 31.392C168.686 32.076 170.882 34.236 170.882 37.944C170.882 42.3 167.534 45.432 162.674 45.432Z"
    fill="currentColor" />
</svg>