<svg viewBox="0 0 185 139" fill="none">
  <path fill-rule="evenodd" clip-rule="evenodd"
    d="M46.6568 127.823C31.286 128.264 19.1268 122.713 10.1832 110.548C0.409729 97.2517 -1.78935 82.2616 4.10874 66.6451C10.0794 50.8364 21.4918 41.5045 37.5285 38.5925C39.6819 38.2017 41.8395 38.1057 43.993 38.2105C45.3726 38.276 45.8622 37.7608 46.2875 36.4249C52.3246 17.4575 64.7141 5.51263 83.1552 1.16427C107.142 -4.49166 132.039 11.2995 139.282 36.2197C139.717 37.715 140.294 38.1865 141.815 38.193C163.077 38.2803 180.803 54.0431 184.043 76.1517C187.771 101.583 170.697 124.097 147.974 127.396C143.134 128.096 138.282 127.852 133.437 127.771C130.251 127.719 128.101 124.977 128.178 121.537C128.251 118.254 130.508 115.798 133.649 115.68C138.489 115.499 143.331 115.881 148.161 114.927C159.913 112.606 170.434 101.43 172.32 89.0199C175.131 70.4936 164.517 54.4121 147.109 50.8736C143.669 50.175 140.211 50.2034 136.753 50.8932C132.892 51.6659 130.087 49.5594 129.404 45.4425C126.508 27.9923 114.307 15.0301 97.7335 12.7228C76.5372 9.77149 59.6853 25.4645 56.5402 43.9908C56.4364 44.5999 56.3244 45.2111 56.202 45.8157C55.4386 49.59 52.5196 51.6201 48.9077 50.8932C32.5204 47.5948 15.795 60.0505 13.2474 77.4527C10.5836 95.6407 21.3902 111.786 38.572 115.158C42.9806 116.023 47.47 115.564 51.9242 115.662C54.6689 115.721 57.0215 117.933 57.3928 120.668C57.8057 123.72 56.3493 126.485 53.7291 127.468C53.0673 127.714 52.3204 127.791 51.6109 127.808C49.7064 127.852 47.804 127.823 46.6568 127.823Z"
    fill="#54CA70" />
  <path fill-rule="evenodd" clip-rule="evenodd"
    d="M108.911 117.851C108.909 124.063 108.855 130.271 108.949 136.482C108.974 138.086 108.488 138.418 107.057 138.409C97.5488 138.353 88.0388 138.355 78.5309 138.429C76.9957 138.442 76.6825 137.872 76.6866 136.386C76.7343 124.242 76.7323 112.097 76.6949 99.9529C76.6845 96.6917 77.2239 97.0889 74.0311 97.0671C70.5562 97.0409 67.0791 97.0453 63.6042 97.0693C62.0814 97.0802 60.6064 96.8379 59.9342 95.2422C59.2703 93.6618 60.2765 92.4612 61.2599 91.4243C70.801 81.361 80.3504 71.3022 89.9184 61.2695C91.8478 59.2481 93.8083 59.2656 95.7605 61.3153C105.235 71.2541 114.689 81.217 124.137 91.182C124.639 91.7124 125.116 92.3149 125.456 92.9676C126.351 94.6877 125.821 95.9953 124.068 96.7419C123.311 97.0628 122.535 97.0606 121.747 97.0606C118.009 97.0606 114.27 97.1173 110.534 97.0344C109.221 97.006 108.878 97.4906 108.891 98.8069C108.945 105.155 108.916 111.503 108.911 117.851Z"
    fill="#54CA70" />
</svg>