<svg viewBox="0 0 194 194" fill="none" xmlns="http://www.w3.org/2000/svg">
  <rect width="61" height="61" fill="white" />
  <rect x="66" width="61" height="61" fill="white" />
  <rect x="131" width="63" height="61" fill="white" />
  <rect y="66" width="61" height="62" fill="white" />
  <rect x="66" y="66" width="61" height="62" fill="white" />
  <rect x="131" y="66" width="63" height="62" fill="white" />
  <rect y="133" width="61" height="61" fill="white" />
  <rect x="66" y="133" width="61" height="61" fill="white" />
  <rect x="131" y="133" width="63" height="61" fill="white" />
  <path d="M25.0224 23.128L31.1064 18.124H33.9144V43H31.0704V21.472L25.0224 26.404V23.128Z" fill="currentColor" />
  <path
    d="M34.6704 97.588L26.0304 106.444H38.8104V109H22.3584V106.3L32.5464 95.968C34.5624 93.88 35.3904 92.368 35.3904 90.568C35.3904 87.868 33.5544 86.284 30.5304 86.284C27.1104 86.284 25.2024 88.12 25.2024 91.576V92.836L22.3584 92.512V91.36C22.3584 86.536 25.3824 83.692 30.4224 83.692C35.1024 83.692 38.2344 86.284 38.2344 90.496C38.2344 92.764 37.4064 94.78 34.6704 97.588Z"
    fill="currentColor" />
  <path
    d="M30.6744 176.432C25.2024 176.432 21.9984 173.336 21.9984 168.008H24.9144C24.9144 171.572 26.8584 173.84 30.6384 173.84C33.8784 173.84 36.0024 171.716 36.0024 168.764C36.0024 165.272 33.3384 163.724 30.1344 163.724H29.3064V161.456H30.0984C32.9784 161.456 34.8144 159.692 34.8144 157.172C34.8144 154.832 33.0504 153.248 30.4584 153.248C27.5784 153.248 25.7064 155.264 25.7064 158.288V158.468L22.8264 158.144C22.8264 153.572 25.8864 150.692 30.3864 150.692C34.5624 150.692 37.5144 153.392 37.5144 156.92C37.5144 159.728 35.7864 161.672 33.6984 162.392C36.6864 163.076 38.8824 165.236 38.8824 168.944C38.8824 173.3 35.5344 176.432 30.6744 176.432Z"
    fill="currentColor" />
</svg>