<svg viewBox="0 0 43 44" fill="none" xmlns="http://www.w3.org/2000/svg">
  <path
    d="M34.3036 43.8184H30.6389V35.1204H21.9409V31.4558H30.6389V22.7578H34.3036V31.4558H42.9574V35.1204H34.3036V43.8184Z"
    fill="currentColor" />
  <path fill-rule="evenodd" clip-rule="evenodd"
    d="M14.1816 34.0753L14.9521 40.3828H25.5467L25.9558 37.0345H20.2494V29.3699H28.9474V20.6719H34.6966V20.0076C34.6966 19.7934 34.6806 19.5713 34.6485 19.3414L39.6087 15.4978L34.3114 6.13506L28.5806 8.59893C28.2288 8.33611 27.8679 8.08973 27.4981 7.85977C27.1282 7.6298 26.7346 7.43269 26.3172 7.26844L25.5467 0.960938H14.9521L14.1816 7.26844C13.7963 7.43269 13.4111 7.6298 13.0258 7.85977C12.6405 8.08973 12.2713 8.33611 11.9182 8.59893L6.18745 6.13506L0.890137 15.4978L5.85035 19.3414C5.81824 19.5713 5.80219 19.7934 5.80219 20.0076V21.3381C5.80219 21.551 5.81824 21.7724 5.85035 22.0024L0.890137 25.846L6.18745 35.2087L11.9182 32.7448C12.2726 33.0076 12.6341 33.254 13.0027 33.484C13.3713 33.7139 13.7642 33.9111 14.1816 34.0753ZM36.612 23.5612V29.3699H37.5668L39.5605 25.846L36.612 23.5612ZM25.1133 25.5503C23.797 26.8972 22.2078 27.5707 20.3457 27.5707C18.4528 27.5707 16.8559 26.8972 15.555 25.5503C14.2541 24.2034 13.6037 22.5773 13.6037 20.6719C13.6024 18.7665 14.2522 17.1403 15.5531 15.7934C16.854 14.4465 18.4515 13.773 20.3457 13.773C22.2078 13.773 23.797 14.4465 25.1133 15.7934C26.4296 17.1403 27.0878 18.7665 27.0878 20.6719C27.0878 22.5773 26.4296 24.2034 25.1133 25.5503Z"
    fill="currentColor" />
</svg>