<svg viewBox="0 0 51 52" fill="none" xmlns="http://www.w3.org/2000/svg">
  <path
    d="M18.6753 51.7539L17.6791 43.5983C17.1394 43.3859 16.6313 43.131 16.1547 42.8337C15.6782 42.5364 15.2108 42.2178 14.7525 41.878L7.34261 45.0637L0.493164 32.9577L6.90674 27.9879C6.86523 27.6906 6.84447 27.4043 6.84447 27.129V25.4087C6.84447 25.1317 6.86523 24.8446 6.90674 24.5473L0.493164 19.5774L7.34261 7.47141L14.7525 10.6572C15.2091 10.3174 15.6865 9.99881 16.1846 9.70146C16.6828 9.40412 17.1809 9.14926 17.6791 8.93687L18.6753 0.78125H32.3742L33.3705 8.93687C33.9102 9.14926 34.4191 9.40412 34.8973 9.70146C35.3755 9.99881 35.8421 10.3174 36.2971 10.6572L43.707 7.47141L50.5564 19.5774L44.1428 24.5473C44.1844 24.8446 44.2051 25.1317 44.2051 25.4087V27.1265C44.2051 27.4034 44.1636 27.6906 44.0806 27.9879L50.4942 32.9577L43.6447 45.0637L36.2971 41.878C35.8405 42.2178 35.3631 42.5364 34.865 42.8337C34.3668 43.131 33.8687 43.3859 33.3705 43.5983L32.3742 51.7539H18.6753ZM25.6493 35.1878C28.057 35.1878 30.1118 34.317 31.8138 32.5754C33.5158 30.8339 34.3668 28.7313 34.3668 26.2676C34.3668 23.8039 33.5158 21.7013 31.8138 19.9597C30.1118 18.2181 28.057 17.3474 25.6493 17.3474C23.2001 17.3474 21.1345 18.2181 19.4524 19.9597C17.7704 21.7013 16.9302 23.8039 16.9318 26.2676C16.9318 28.7313 17.7729 30.8339 19.4549 32.5754C21.137 34.317 23.2018 35.1878 25.6493 35.1878Z"
    fill="white" />
</svg>