<svg viewBox="0 0 41 46" fill="none" xmlns="http://www.w3.org/2000/svg">
  <path
    d="M39.0497 10.9642L22.2205 1.24795C21.7425 0.972891 21.2006 0.828127 20.6491 0.828127C20.0975 0.828127 19.5557 0.972891 19.0776 1.24795L2.24828 10.9643C1.77111 11.2408 1.37487 11.6377 1.09912 12.1154C0.82336 12.593 0.677753 13.1346 0.676833 13.6861L0.676831 33.1186C0.677739 33.6702 0.823342 34.2118 1.0991 34.6894C1.37485 35.167 1.77111 35.5639 2.24827 35.8405L19.0775 45.5568C19.5556 45.8318 20.0974 45.9766 20.649 45.9766C21.2005 45.9766 21.7423 45.8318 22.2204 45.5568L39.0497 35.8405C39.5268 35.5639 39.9231 35.167 40.1989 34.6894C40.4746 34.2118 40.6202 33.6702 40.6211 33.1186L40.6211 13.686C40.6202 13.1345 40.4746 12.5929 40.1989 12.1152C39.9231 11.6376 39.5268 11.2407 39.0497 10.9642ZM19.0776 41.9277L3.81981 33.1186L3.81982 15.6974L19.0776 24.3214L19.0776 41.9277ZM20.6541 21.6023L5.21908 12.8781L20.6487 3.96998L36.084 12.881L20.6541 21.6023ZM37.4782 33.1186L22.2205 41.9277L22.2205 24.3275L37.4782 15.7032L37.4782 33.1186Z"
    fill="currentColor" />
</svg>