<svg viewBox="0 0 50 50" fill="none" xmlns="http://www.w3.org/2000/svg">
  <path
    d="M0 10.4167C0 7.65399 1.09747 5.00447 3.05097 3.05097C5.00447 1.09747 7.65399 0 10.4167 0H39.5833C42.346 0 44.9955 1.09747 46.949 3.05097C48.9025 5.00447 50 7.65399 50 10.4167V25H35.4167C32.654 25 30.0045 26.0975 28.051 28.051C26.0975 30.0045 25 32.654 25 35.4167V50H10.4167C7.65399 50 5.00447 48.9025 3.05097 46.949C1.09747 44.9955 0 42.346 0 39.5833V10.4167ZM29.1667 49.4125C30.6403 48.8956 31.9789 48.054 33.0833 46.95L46.95 33.0792C48.052 31.9755 48.8921 30.6384 49.4083 29.1667H35.4167C33.7591 29.1667 32.1693 29.8251 30.9972 30.9972C29.8251 32.1693 29.1667 33.7591 29.1667 35.4167V49.4125Z"
    fill="currentColor" />
</svg>