<svg viewBox="0 0 43 49" fill="none" xmlns="http://www.w3.org/2000/svg">
  <path fill-rule="evenodd" clip-rule="evenodd"
    d="M0.571289 4.96099C0.571289 3.68669 1.0775 2.46459 1.97856 1.56353C2.87963 0.662462 4.10173 0.15625 5.37603 0.15625L31.6644 0.15625L42.2124 10.7043V43.3989C42.2124 44.6732 41.7061 45.8953 40.8051 46.7964C39.904 47.6974 38.6819 48.2036 37.4076 48.2036H5.37603C4.10173 48.2036 2.87963 47.6974 1.97856 46.7964C1.0775 45.8953 0.571289 44.6732 0.571289 43.3989V4.96099ZM10.1808 12.9593L26.1966 12.9689V16.172L10.1808 16.1624V12.9593ZM32.6029 22.5623H10.1808V25.7655H32.6029V22.5623ZM32.6029 32.191L10.1808 32.1654V35.3686L32.6029 35.391V32.191Z"
    fill="white" />
</svg>