<svg viewBox="0 0 45 32" fill="none" xmlns="http://www.w3.org/2000/svg">
  <path
    d="M22.5173 21.8471C25.7133 21.8471 28.3042 19.2563 28.3042 16.0603C28.3042 12.8643 25.7133 10.2734 22.5173 10.2734C19.3213 10.2734 16.7305 12.8643 16.7305 16.0603C16.7305 19.2563 19.3213 21.8471 22.5173 21.8471Z"
    fill="currentColor" />
  <path
    d="M44.1313 15.5704C42.4298 11.169 39.4758 7.36264 35.6345 4.6218C31.7932 1.88096 27.233 0.325765 22.5175 0.148438C17.8019 0.325765 13.2417 1.88096 9.4004 4.6218C5.55911 7.36264 2.60514 11.169 0.90357 15.5704C0.788654 15.8882 0.788654 16.2363 0.90357 16.5542C2.60514 20.9556 5.55911 24.7619 9.4004 27.5028C13.2417 30.2436 17.8019 31.7988 22.5175 31.9761C27.233 31.7988 31.7932 30.2436 35.6345 27.5028C39.4758 24.7619 42.4298 20.9556 44.1313 16.5542C44.2463 16.2363 44.2463 15.8882 44.1313 15.5704ZM22.5175 25.4659C20.6576 25.4659 18.8395 24.9144 17.2931 23.8811C15.7467 22.8478 14.5414 21.3792 13.8296 19.6609C13.1179 17.9426 12.9317 16.0518 13.2945 14.2277C13.6574 12.4036 14.553 10.728 15.8681 9.4129C17.1832 8.09778 18.8588 7.20217 20.6829 6.83933C22.507 6.47649 24.3978 6.66271 26.1161 7.37445C27.8344 8.08619 29.303 9.29148 30.3363 10.8379C31.3696 12.3843 31.9211 14.2024 31.9211 16.0623C31.9173 18.5551 30.9253 20.9447 29.1626 22.7074C27.3999 24.4701 25.0103 25.4621 22.5175 25.4659Z"
    fill="currentColor" />
</svg>