<svg viewBox="0 0 26 35" fill="none" xmlns="http://www.w3.org/2000/svg">
  <path
    d="M4.33333 0C1.94323 0 0 1.96191 0 4.375V30.625C0 33.0381 1.94323 35 4.33333 35H21.6667C24.0568 35 26 33.0381 26 30.625V10.9375H17.3333C16.1349 10.9375 15.1667 9.95996 15.1667 8.75V0H4.33333ZM17.3333 0V8.75H26L17.3333 0ZM14.625 15.8594V22.8389L16.724 20.7197C17.3604 20.0771 18.3896 20.0771 19.0193 20.7197C19.649 21.3623 19.6557 22.4014 19.0193 23.0371L14.1443 27.959C13.5078 28.6016 12.4786 28.6016 11.849 27.959L6.97396 23.0371C6.3375 22.3945 6.3375 21.3555 6.97396 20.7197C7.61042 20.084 8.63958 20.0771 9.26927 20.7197L11.3682 22.8389V15.8594C11.3682 14.9502 12.0927 14.2188 12.9932 14.2188C13.8938 14.2188 14.6182 14.9502 14.6182 15.8594H14.625Z"
    fill="currentColor" />
</svg>