<svg viewBox="0 0 17 17" fill="none" xmlns="http://www.w3.org/2000/svg">
<path d="M0 1.65C0 1.21239 0.173839 0.792709 0.483274 0.483274C0.792709 0.173839 1.21239 0 1.65 0H14.85C15.2876 0 15.7073 0.173839 16.0167 0.483274C16.3262 0.792709 16.5 1.21239 16.5 1.65C16.5 2.08761 16.3262 2.50729 16.0167 2.81673C15.7073 3.12616 15.2876 3.3 14.85 3.3H1.65C1.21239 3.3 0.792709 3.12616 0.483274 2.81673C0.173839 2.50729 0 2.08761 0 1.65ZM1.65 9.9H14.85C15.2876 9.9 15.7073 9.72616 16.0167 9.41673C16.3262 9.10729 16.5 8.68761 16.5 8.25C16.5 7.81239 16.3262 7.39271 16.0167 7.08327C15.7073 6.77384 15.2876 6.6 14.85 6.6H1.65C1.21239 6.6 0.792709 6.77384 0.483274 7.08327C0.173839 7.39271 0 7.81239 0 8.25C0 8.68761 0.173839 9.10729 0.483274 9.41673C0.792709 9.72616 1.21239 9.9 1.65 9.9ZM8.25 13.2H1.65C1.21239 13.2 0.792709 13.3738 0.483274 13.6833C0.173839 13.9927 0 14.4124 0 14.85C0 15.2876 0.173839 15.7073 0.483274 16.0167C0.792709 16.3262 1.21239 16.5 1.65 16.5H8.25C8.68761 16.5 9.10729 16.3262 9.41673 16.0167C9.72616 15.7073 9.9 15.2876 9.9 14.85C9.9 14.4124 9.72616 13.9927 9.41673 13.6833C9.10729 13.3738 8.68761 13.2 8.25 13.2Z" fill="#54CA70"/>
</svg>
