<svg viewBox="0 0 51 46" fill="none" xmlns="http://www.w3.org/2000/svg">
  <path
    d="M5.33252 0.828125H45.9687C47.1662 0.828125 48.3146 1.30382 49.1614 2.15058C50.0081 2.99733 50.4838 4.14577 50.4838 5.34326V41.4643C50.4838 42.6618 50.0081 43.8102 49.1614 44.657C48.3146 45.5037 47.1662 45.9794 45.9687 45.9794H5.33252C4.13503 45.9794 2.98659 45.5037 2.13983 44.657C1.29308 43.8102 0.817383 42.6618 0.817383 41.4643V5.34326C0.817383 4.14577 1.29308 2.99733 2.13983 2.15058C2.98659 1.30382 4.13503 0.828125 5.33252 0.828125ZM27.9082 5.34326V41.4643H45.9687V5.34326H27.9082ZM5.33252 5.34326V41.4643H23.393V5.34326H5.33252ZM9.84765 25.6614H14.3628V34.6916H9.84765V25.6614ZM9.84765 9.85839H18.8779V13.2447H9.84765V9.85839ZM9.84765 16.6311H18.8779V20.0174H9.84765V16.6311ZM32.4233 25.6614H36.9384V34.6916H32.4233V25.6614ZM32.4233 9.85839H41.4536V13.2447H32.4233V9.85839ZM32.4233 16.6311H41.4536V20.0174H32.4233V16.6311Z"
    fill="currentColor" />
</svg>