<svg viewBox="0 0 55 50" fill="none" xmlns="http://www.w3.org/2000/svg">
  <path
    d="M43.8243 10.4979H11.1756V0H43.8243V10.4979ZM45.8355 24.376C46.7606 24.376 47.5354 24.064 48.1601 23.4399C48.7848 22.8159 49.0982 22.0445 49.1004 21.1258C49.1026 20.2071 48.7891 19.4347 48.1601 18.8085C47.5311 18.1823 46.7562 17.8703 45.8355 17.8725C44.9148 17.8746 44.1389 18.1866 43.5077 18.8085C42.8764 19.4304 42.5641 20.2028 42.5706 21.1258C42.5772 22.0489 42.8895 22.8202 43.5077 23.4399C44.1258 24.0596 44.9018 24.3716 45.8355 24.376ZM40.5595 46.7499V32.0008H14.4405V46.7499H40.5595ZM43.8243 50H11.1756V36.9995H0V19.5008C0 17.659 0.627943 16.1152 1.88383 14.8693C3.13972 13.6235 4.68835 12.9994 6.52974 12.9973H48.4703C50.3204 12.9973 51.8712 13.6213 53.1227 14.8693C54.3742 16.1174 55 17.6601 55 19.4975V36.9995H43.8243V50Z"
    fill="white" />
</svg>