<svg viewBox="0 0 45 45" fill="none" xmlns="http://www.w3.org/2000/svg">
  <path
    d="M44.4562 9.91877L35.0812 0.543781C34.906 0.370003 34.6982 0.232519 34.4698 0.13921C34.2414 0.0459016 33.9967 -0.00139533 33.75 3.13393e-05H3.75C2.75544 3.13393e-05 1.80161 0.395119 1.09835 1.09838C0.395088 1.80164 0 2.75547 0 3.75003V41.25C0 42.2446 0.395088 43.1984 1.09835 43.9016C1.80161 44.6049 2.75544 45 3.75 45H41.25C42.2445 45 43.1984 44.6049 43.9016 43.9016C44.6049 43.1984 45 42.2446 45 41.25V11.25C45.0014 11.0033 44.9541 10.7586 44.8608 10.5302C44.7675 10.3018 44.63 10.094 44.4562 9.91877ZM15 3.75003H30V11.25H15V3.75003ZM30 41.25H15V26.25H30V41.25ZM33.75 41.25V26.25C33.75 25.2555 33.3549 24.3016 32.6516 23.5984C31.9484 22.8951 30.9945 22.5 30 22.5H15C14.0054 22.5 13.0516 22.8951 12.3483 23.5984C11.6451 24.3016 11.25 25.2555 11.25 26.25V41.25H3.75V3.75003H11.25V11.25C11.25 12.2446 11.6451 13.1984 12.3483 13.9017C13.0516 14.6049 14.0054 15 15 15H30C30.9945 15 31.9484 14.6049 32.6516 13.9017C33.3549 13.1984 33.75 12.2446 33.75 11.25V4.51878L41.25 12.0188V41.25H33.75Z"
    fill="currentColor" />
</svg>