<svg viewBox="0 0 49 49" fill="none" xmlns="http://www.w3.org/2000/svg">
  <path fill-rule="evenodd" clip-rule="evenodd"
    d="M16.2541 13.5964C16.2541 11.4725 17.0977 9.43573 18.5995 7.93398C20.1012 6.43222 22.1381 5.58854 24.2619 5.58854C26.3857 5.58854 28.4225 6.43222 29.9243 7.93398C31.426 9.43573 32.2697 11.4725 32.2697 13.5964H16.2541ZM10.9155 13.5964C10.9155 10.0567 12.3216 6.66198 14.8246 4.15906C17.3275 1.65613 20.7222 0.25 24.2619 0.25C27.8015 0.25 31.1962 1.65613 33.6992 4.15906C36.2021 6.66198 37.6082 10.0567 37.6082 13.5964H45.616C45.9868 13.5963 46.3536 13.6736 46.6929 13.8231C47.0322 13.9727 47.3366 14.1913 47.5867 14.465C47.8368 14.7388 48.0272 15.0616 48.1456 15.413C48.2641 15.7644 48.308 16.1366 48.2746 16.5059L46.0458 41.0151C45.8647 43.0047 44.9464 44.8547 43.4712 46.202C41.996 47.5493 40.0705 48.2964 38.0727 48.2969H10.4511C8.45325 48.2964 6.52774 47.5493 5.05257 46.202C3.57739 44.8547 2.65909 43.0047 2.47795 41.0151L0.249114 16.5059C0.215742 16.1366 0.259678 15.7644 0.37812 15.413C0.496562 15.0616 0.686913 14.7388 0.937039 14.465C1.18716 14.1913 1.49158 13.9727 1.83087 13.8231C2.17017 13.6736 2.53691 13.5963 2.90771 13.5964H10.9155Z"
    fill="white" />
</svg>