<svg viewBox="0 0 38 38" fill="none" xmlns="http://www.w3.org/2000/svg">
  <path
    d="M18.8676 0.546875C21.3211 0.546875 23.6742 1.52155 25.4091 3.25648C27.1441 4.99141 28.1187 7.34448 28.1187 9.79804C28.1187 12.2516 27.1441 14.6047 25.4091 16.3396C23.6742 18.0745 21.3211 19.0492 18.8676 19.0492C16.414 19.0492 14.0609 18.0745 12.326 16.3396C10.5911 14.6047 9.6164 12.2516 9.6164 9.79804C9.6164 7.34448 10.5911 4.99141 12.326 3.25648C14.0609 1.52155 16.414 0.546875 18.8676 0.546875ZM18.8676 23.6748C29.0901 23.6748 37.3699 27.8147 37.3699 32.926V37.5515H0.365234V32.926C0.365234 27.8147 8.64503 23.6748 18.8676 23.6748Z"
    fill="currentColor" />
</svg>